<mxfile host="65bd71144e">
    <diagram id="QIXIpxR2NynCGuRGuRHA" name="第 1 页">
        <mxGraphModel dx="1224" dy="712" grid="1" gridSize="10" guides="1" tooltips="1" connect="1" arrows="1" fold="1" page="1" pageScale="1" pageWidth="1169" pageHeight="1654" background="none" math="0" shadow="0">
            <root>
                <mxCell id="0"/>
                <mxCell id="1" parent="0"/>
                <mxCell id="184" value="" style="whiteSpace=wrap;html=1;strokeColor=default;rounded=0;" parent="1" vertex="1">
                    <mxGeometry width="1160" height="1640" as="geometry"/>
                </mxCell>
                <mxCell id="22" value="&lt;span style=&quot;&quot;&gt;Inflastructure (go.mod)&lt;/span&gt;" style="shape=folder;fontStyle=0;tabWidth=240;tabHeight=30;tabPosition=left;html=1;boundedLbl=1;labelInHeader=1;container=1;collapsible=0;recursiveResize=0;fontSize=14;align=left;spacingLeft=10;dashed=1;" parent="1" vertex="1">
                    <mxGeometry x="40" y="1470" width="1080" height="100" as="geometry"/>
                </mxCell>
                <mxCell id="23" value="wails" style="html=1;fontSize=14;fontStyle=0" parent="22" vertex="1">
                    <mxGeometry width="120" height="30" relative="1" as="geometry">
                        <mxPoint x="20" y="50" as="offset"/>
                    </mxGeometry>
                </mxCell>
                <mxCell id="59" value="systray" style="html=1;fontSize=14;fontStyle=0" parent="22" vertex="1">
                    <mxGeometry x="160" y="50" width="120" height="30" as="geometry"/>
                </mxCell>
                <mxCell id="77" value="gin" style="html=1;fontSize=14;fontStyle=0" parent="22" vertex="1">
                    <mxGeometry x="300" y="50" width="120" height="30" as="geometry"/>
                </mxCell>
                <mxCell id="78" value="gorm" style="html=1;fontSize=14;fontStyle=0" parent="22" vertex="1">
                    <mxGeometry x="440" y="50" width="120" height="30" as="geometry"/>
                </mxCell>
                <mxCell id="170" value="&lt;span&gt;Level 1&lt;/span&gt;" style="shape=folder;fontStyle=0;tabWidth=240;tabHeight=30;tabPosition=left;html=1;boundedLbl=1;labelInHeader=1;container=1;collapsible=0;recursiveResize=0;fontSize=14;align=left;spacingLeft=10;dashed=1;" parent="1" vertex="1">
                    <mxGeometry x="40" y="40" width="1080" height="400" as="geometry"/>
                </mxCell>
                <mxCell id="107" value="&lt;span style=&quot;&quot;&gt;Service Layer (web)&lt;/span&gt;" style="shape=folder;fontStyle=0;tabWidth=240;tabHeight=30;tabPosition=left;html=1;boundedLbl=1;labelInHeader=1;container=1;collapsible=0;recursiveResize=0;fontSize=14;align=left;spacingLeft=10;" parent="170" vertex="1">
                    <mxGeometry x="700" y="50" width="360" height="330" as="geometry"/>
                </mxCell>
                <mxCell id="108" value="&lt;font style=&quot;font-size: 14px;&quot;&gt;auth&lt;/font&gt;" style="shape=folder;fontStyle=0;tabWidth=40;tabHeight=10;tabPosition=left;html=1;boundedLbl=1;fontSize=12;" parent="107" vertex="1">
                    <mxGeometry x="220" y="50" width="120" height="50" as="geometry"/>
                </mxCell>
                <mxCell id="109" style="edgeStyle=elbowEdgeStyle;html=1;fontSize=12;dashed=1;endArrow=open;endFill=0;endSize=8;fontStyle=0" parent="107" source="110" target="108" edge="1">
                    <mxGeometry relative="1" as="geometry"/>
                </mxCell>
                <mxCell id="124" style="edgeStyle=elbowEdgeStyle;html=1;dashed=1;fontSize=14;endArrow=open;endFill=0;endSize=8;fontStyle=0" parent="107" source="110" target="120" edge="1">
                    <mxGeometry relative="1" as="geometry"/>
                </mxCell>
                <mxCell id="125" style="edgeStyle=elbowEdgeStyle;html=1;dashed=1;fontSize=14;endArrow=open;endFill=0;endSize=8;fontStyle=0" parent="107" source="110" target="121" edge="1">
                    <mxGeometry relative="1" as="geometry"/>
                </mxCell>
                <mxCell id="126" style="edgeStyle=elbowEdgeStyle;html=1;dashed=1;fontSize=14;endArrow=open;endFill=0;endSize=8;fontStyle=0" parent="107" source="110" target="122" edge="1">
                    <mxGeometry relative="1" as="geometry"/>
                </mxCell>
                <mxCell id="110" value="&lt;font style=&quot;font-size: 14px;&quot;&gt;web&lt;/font&gt;" style="shape=folder;fontStyle=0;tabWidth=40;tabHeight=10;tabPosition=left;html=1;boundedLbl=1;fontSize=12;" parent="107" vertex="1">
                    <mxGeometry x="20" y="140" width="120" height="50" as="geometry"/>
                </mxCell>
                <mxCell id="120" value="&lt;font style=&quot;font-size: 14px;&quot;&gt;middleware&lt;/font&gt;" style="shape=folder;fontStyle=0;tabWidth=40;tabHeight=10;tabPosition=left;html=1;boundedLbl=1;fontSize=12;" parent="107" vertex="1">
                    <mxGeometry x="220" y="120" width="120" height="50" as="geometry"/>
                </mxCell>
                <mxCell id="121" value="&lt;font style=&quot;font-size: 14px;&quot;&gt;api&lt;/font&gt;" style="shape=folder;fontStyle=0;tabWidth=40;tabHeight=10;tabPosition=left;html=1;boundedLbl=1;fontSize=12;" parent="107" vertex="1">
                    <mxGeometry x="220" y="190" width="120" height="50" as="geometry"/>
                </mxCell>
                <mxCell id="122" value="&lt;font style=&quot;font-size: 14px;&quot;&gt;static&lt;/font&gt;" style="shape=folder;fontStyle=0;tabWidth=40;tabHeight=10;tabPosition=left;html=1;boundedLbl=1;fontSize=12;" parent="107" vertex="1">
                    <mxGeometry x="220" y="260" width="120" height="50" as="geometry"/>
                </mxCell>
                <mxCell id="111" value="&lt;span style=&quot;&quot;&gt;Presentation Layer (main)&lt;/span&gt;" style="shape=folder;fontStyle=0;tabWidth=240;tabHeight=30;tabPosition=left;html=1;boundedLbl=1;labelInHeader=1;container=1;collapsible=0;recursiveResize=0;fontSize=14;align=left;spacingLeft=10;" parent="170" vertex="1">
                    <mxGeometry x="20" y="155" width="200" height="120" as="geometry"/>
                </mxCell>
                <mxCell id="187" value="wails" style="html=1;fontSize=14;fontStyle=0" parent="111" vertex="1">
                    <mxGeometry x="40" y="60" width="120" height="30" as="geometry"/>
                </mxCell>
                <mxCell id="131" value="Presentation Layer&lt;span&gt;&amp;nbsp;(tray)&lt;/span&gt;" style="shape=folder;fontStyle=0;tabWidth=180;tabHeight=30;tabPosition=left;html=1;boundedLbl=1;labelInHeader=1;container=1;collapsible=0;recursiveResize=0;fontSize=14;align=left;spacingLeft=10;" parent="170" vertex="1">
                    <mxGeometry x="280" y="155" width="360" height="120" as="geometry"/>
                </mxCell>
                <mxCell id="133" value="&lt;span style=&quot;font-size: 14px;&quot;&gt;menus&lt;/span&gt;" style="shape=folder;fontStyle=0;tabWidth=40;tabHeight=10;tabPosition=left;html=1;boundedLbl=1;fontSize=12;" parent="131" vertex="1">
                    <mxGeometry x="220" y="50" width="120" height="50" as="geometry"/>
                </mxCell>
                <mxCell id="157" value="&lt;span style=&quot;font-size: 14px;&quot;&gt;tray&lt;/span&gt;" style="shape=folder;fontStyle=0;tabWidth=40;tabHeight=10;tabPosition=left;html=1;boundedLbl=1;fontSize=12;" parent="131" vertex="1">
                    <mxGeometry x="20" y="50" width="120" height="50" as="geometry"/>
                </mxCell>
                <mxCell id="158" style="edgeStyle=orthogonalEdgeStyle;html=1;fontSize=12;dashed=1;endArrow=open;endFill=0;endSize=8;fontStyle=0" parent="131" source="157" target="133" edge="1">
                    <mxGeometry relative="1" as="geometry">
                        <mxPoint x="90" y="-135" as="targetPoint"/>
                        <mxPoint x="90" y="-175" as="sourcePoint"/>
                    </mxGeometry>
                </mxCell>
                <mxCell id="113" style="edgeStyle=orthogonalEdgeStyle;html=1;fontSize=12;dashed=1;endArrow=open;endFill=0;endSize=8;fontStyle=0" parent="170" source="111" target="131" edge="1">
                    <mxGeometry relative="1" as="geometry">
                        <mxPoint x="440" y="220" as="targetPoint"/>
                        <mxPoint x="150" y="185" as="sourcePoint"/>
                    </mxGeometry>
                </mxCell>
                <mxCell id="160" style="edgeStyle=orthogonalEdgeStyle;html=1;fontSize=12;dashed=1;endArrow=open;endFill=0;endSize=8;fontStyle=0" parent="170" source="131" target="107" edge="1">
                    <mxGeometry relative="1" as="geometry">
                        <mxPoint x="290" y="280" as="targetPoint"/>
                        <mxPoint x="210" y="280" as="sourcePoint"/>
                    </mxGeometry>
                </mxCell>
                <mxCell id="175" value="&lt;span&gt;Level 2&lt;/span&gt;" style="shape=folder;fontStyle=0;tabWidth=240;tabHeight=30;tabPosition=left;html=1;boundedLbl=1;labelInHeader=1;container=1;collapsible=0;recursiveResize=0;fontSize=14;align=left;spacingLeft=10;dashed=1;" parent="1" vertex="1">
                    <mxGeometry x="40" y="520" width="1080" height="870" as="geometry"/>
                </mxCell>
                <mxCell id="14" value="Cross Cutting (pkg)" style="shape=folder;xSize=90;align=left;spacingLeft=4;align=left;verticalAlign=top;spacingLeft=5;spacingTop=0;tabWidth=240;tabHeight=30;tabPosition=left;html=1;strokeWidth=1;recursiveResize=0;fontSize=14;fontStyle=0" parent="175" vertex="1">
                    <mxGeometry x="900" y="50" width="160" height="800" as="geometry"/>
                </mxCell>
                <mxCell id="63" value="&lt;br&gt;utils" style="strokeColor=inherit;fillColor=inherit;gradientColor=inherit;shape=folder;spacingLeft=10;tabWidth=40;tabHeight=14;tabPosition=left;fontSize=14;html=1;whiteSpace=wrap;spacingRight=10;fontStyle=0" parent="14" vertex="1">
                    <mxGeometry x="20" y="50" width="118.75" height="50" as="geometry"/>
                </mxCell>
                <mxCell id="119" style="edgeStyle=orthogonalEdgeStyle;html=1;dashed=1;fontSize=14;endArrow=open;endFill=0;endSize=8;fontStyle=0" parent="175" source="86" target="14" edge="1">
                    <mxGeometry relative="1" as="geometry"/>
                </mxCell>
                <mxCell id="86" value="&lt;span&gt;Persistence Layer (model)&lt;/span&gt;" style="shape=folder;fontStyle=0;tabWidth=240;tabHeight=30;tabPosition=left;html=1;boundedLbl=1;labelInHeader=1;container=1;collapsible=0;recursiveResize=0;fontSize=14;align=left;spacingLeft=10;" parent="175" vertex="1">
                    <mxGeometry x="20" y="650" width="800" height="200" as="geometry"/>
                </mxCell>
                <mxCell id="185" value="option" style="html=1;fontSize=14;fontStyle=0" parent="86" vertex="1">
                    <mxGeometry x="20" y="50" width="120" height="30" as="geometry"/>
                </mxCell>
                <mxCell id="105" style="edgeStyle=orthogonalEdgeStyle;html=1;dashed=1;fontSize=14;endArrow=open;endFill=0;endSize=8;fontStyle=0" parent="175" source="96" target="86" edge="1">
                    <mxGeometry relative="1" as="geometry"/>
                </mxCell>
                <mxCell id="118" style="edgeStyle=orthogonalEdgeStyle;html=1;dashed=1;fontSize=14;endArrow=open;endFill=0;endSize=8;fontStyle=0" parent="175" source="96" target="14" edge="1">
                    <mxGeometry relative="1" as="geometry"/>
                </mxCell>
                <mxCell id="96" value="&lt;span style=&quot;&quot;&gt;Business Layer&lt;/span&gt;" style="shape=folder;fontStyle=0;tabWidth=240;tabHeight=30;tabPosition=left;html=1;boundedLbl=1;labelInHeader=1;container=1;collapsible=0;recursiveResize=0;fontSize=14;align=left;spacingLeft=10;dashed=1;" parent="175" vertex="1">
                    <mxGeometry x="20" y="50" width="800" height="530" as="geometry"/>
                </mxCell>
                <mxCell id="129" value="&lt;span style=&quot;&quot;&gt;app&lt;/span&gt;" style="shape=folder;fontStyle=0;tabWidth=100;tabHeight=30;tabPosition=left;html=1;boundedLbl=1;labelInHeader=1;container=1;collapsible=0;recursiveResize=0;fontSize=14;align=left;spacingLeft=10;" parent="96" vertex="1">
                    <mxGeometry x="20" y="150" width="760" height="360" as="geometry"/>
                </mxCell>
                <mxCell id="138" value="&lt;span style=&quot;&quot;&gt;Global Resource&lt;/span&gt;" style="shape=folder;fontStyle=0;tabWidth=160;tabHeight=30;tabPosition=left;html=1;boundedLbl=1;labelInHeader=1;container=1;collapsible=0;recursiveResize=0;fontSize=14;align=left;spacingLeft=10;dashed=1;" parent="129" vertex="1">
                    <mxGeometry x="20" y="150" width="720" height="190" as="geometry"/>
                </mxCell>
                <mxCell id="134" value="&lt;span style=&quot;font-size: 14px;&quot;&gt;config&lt;/span&gt;" style="shape=folder;fontStyle=0;tabWidth=40;tabHeight=10;tabPosition=left;html=1;boundedLbl=1;fontSize=12;" parent="138" vertex="1">
                    <mxGeometry x="20" y="50" width="120" height="50" as="geometry"/>
                </mxCell>
                <mxCell id="140" value="&lt;span style=&quot;font-size: 14px;&quot;&gt;i18n&lt;/span&gt;" style="shape=folder;fontStyle=0;tabWidth=40;tabHeight=10;tabPosition=left;html=1;boundedLbl=1;fontSize=12;" parent="138" vertex="1">
                    <mxGeometry x="160" y="50" width="120" height="50" as="geometry"/>
                </mxCell>
                <mxCell id="141" value="&lt;span style=&quot;font-size: 14px;&quot;&gt;logger&lt;/span&gt;" style="shape=folder;fontStyle=0;tabWidth=40;tabHeight=10;tabPosition=left;html=1;boundedLbl=1;fontSize=12;" parent="138" vertex="1">
                    <mxGeometry x="300" y="50" width="120" height="50" as="geometry"/>
                </mxCell>
                <mxCell id="99" value="&lt;font style=&quot;font-size: 14px;&quot;&gt;app&lt;/font&gt;" style="shape=folder;fontStyle=0;tabWidth=40;tabHeight=10;tabPosition=left;html=1;boundedLbl=1;fontSize=12;" parent="129" vertex="1">
                    <mxGeometry x="320" y="50" width="120" height="50" as="geometry"/>
                </mxCell>
                <mxCell id="142" style="edgeStyle=orthogonalEdgeStyle;html=1;fontSize=12;dashed=1;endArrow=open;endFill=0;endSize=8;fontStyle=0" parent="129" source="99" target="138" edge="1">
                    <mxGeometry relative="1" as="geometry">
                        <mxPoint x="530" y="740" as="sourcePoint"/>
                        <mxPoint x="530" y="780" as="targetPoint"/>
                    </mxGeometry>
                </mxCell>
                <mxCell id="145" style="edgeStyle=orthogonalEdgeStyle;html=1;fontSize=12;dashed=1;endArrow=open;endFill=0;endSize=8;fontStyle=0" parent="96" source="148" target="129" edge="1">
                    <mxGeometry relative="1" as="geometry">
                        <mxPoint x="540" y="150" as="sourcePoint"/>
                        <mxPoint x="550" y="390" as="targetPoint"/>
                    </mxGeometry>
                </mxCell>
                <mxCell id="148" value="&lt;font style=&quot;font-size: 14px;&quot;&gt;service&lt;/font&gt;" style="shape=folder;fontStyle=0;tabWidth=40;tabHeight=10;tabPosition=left;html=1;boundedLbl=1;fontSize=12;" parent="96" vertex="1">
                    <mxGeometry x="340" y="50" width="120" height="50" as="geometry"/>
                </mxCell>
                <mxCell id="180" style="html=1;fontSize=12;dashed=1;endArrow=open;endFill=0;endSize=8;fontStyle=0;edgeStyle=orthogonalEdgeStyle;" parent="1" source="170" target="175" edge="1">
                    <mxGeometry relative="1" as="geometry">
                        <mxPoint x="470" y="760" as="sourcePoint"/>
                        <mxPoint x="470" y="800" as="targetPoint"/>
                    </mxGeometry>
                </mxCell>
            </root>
        </mxGraphModel>
    </diagram>
</mxfile>
